<svg
    width="48"
    height="48"
    viewBox="0 0 48 48"
    fill="none"
    xmlns="http://www.w3.org/2000/svg"
>
    <rect
        y="-3.05176e-05"
        width="48"
        height="48"
        rx="60"
        fill="#151515"
    />
    <path
        d="M22.1002 0.0488892C15.3034 0.595188 9.05836 4.01222 4.88604 9.46448C4.45756 10.0268 3.43457 11.5425 3.43457 11.6175C3.43457 11.6443 4.74143 11.6657 6.47677 11.6657C8.18533 11.6657 9.7225 11.6925 9.99566 11.7193C11.4043 11.88 12.529 12.4102 13.4288 13.3368C14.243 14.1723 14.725 15.0774 15.0571 16.3789C15.3302 17.4393 15.3409 17.6429 15.3731 21.3598L15.4052 24.8679L16.4978 20.2351C17.0977 17.6857 17.6601 15.3666 17.7458 15.0828C18.2974 13.2243 19.1812 11.9657 20.2363 11.5533C20.4827 11.4569 20.6541 11.4301 21.0826 11.4301C21.5646 11.4247 21.6503 11.4408 21.9181 11.5747C22.4805 11.8478 22.9089 12.4477 23.1446 13.2832C23.4445 14.3383 23.4338 13.9955 23.466 23.1808C23.4927 31.0593 23.5035 31.6913 23.5892 31.9483C23.7873 32.5375 24.2105 32.7357 24.5157 32.3822C24.7086 32.1519 25.0192 31.477 25.2281 30.8397C25.3191 30.5612 26.2029 26.9888 27.1884 22.9077C28.1739 18.8212 29.0523 15.2434 29.138 14.9542C29.8503 12.5655 31.0983 11.3069 32.6515 11.4087C33.7441 11.4836 34.3761 12.3406 34.6975 14.183C34.7778 14.6329 34.7939 15.5327 34.8207 22.1364L34.8528 29.5811L34.9706 30.0309C35.2866 31.2307 35.999 31.9591 37.0166 32.1251C37.2469 32.1626 38.8966 32.1786 41.9709 32.1679L46.5771 32.1519L46.7538 31.6431C47.0002 30.9307 47.3269 29.715 47.5144 28.8312C48.0553 26.2176 48.1464 23.3897 47.7822 20.7011C46.8502 13.9045 43.0153 7.80416 37.2576 3.96937C33.9048 1.73598 29.9039 0.364887 25.8012 0.0435333C25.0085 -0.0153809 22.8929 -0.0153809 22.1002 0.0488892Z"
        fill="white"
    />
    <path
        d="M20.8096 13.7379C20.4669 13.8879 20.1026 14.5038 19.7492 15.5375C19.642 15.8481 18.5923 20.1542 17.4139 25.1084C16.2356 30.0679 15.2287 34.2133 15.1698 34.3204C15.1109 34.4329 14.977 34.6097 14.8699 34.7114C14.6877 34.8882 14.6503 34.8989 14.3343 34.8989C14.0075 34.8989 13.9808 34.8882 13.7772 34.69C13.338 34.2615 13.3755 34.9899 13.3434 25.8743C13.3113 17.8941 13.3113 17.7494 13.1988 17.2781C12.8721 15.8642 12.1919 14.8948 11.1849 14.4181C10.3065 14.0057 10.0977 13.9843 5.80216 13.9843L2.17616 13.9789L1.87622 14.6913C0.215868 18.6224 -0.362578 23.0089 0.221224 27.2829C1.15317 34.0794 4.98805 40.1797 10.7457 44.0145C12.4864 45.1714 14.6717 46.2212 16.6909 46.8639C20.0919 47.9511 23.7287 48.2617 27.285 47.7797C34.5263 46.7835 40.9428 42.5095 44.692 36.1736C44.8902 35.8415 45.1687 35.3273 45.3186 35.0328L45.5864 34.4972H41.4195C38.8165 34.4972 37.0865 34.4758 36.8026 34.4383C34.9387 34.208 33.6694 33.0458 33.1123 31.0587C32.8124 29.9983 32.8231 30.2125 32.7856 22.0181C32.7642 16.78 32.7321 14.3753 32.6946 14.236C32.5393 13.6951 32.4589 13.6201 32.1804 13.7379C31.7787 13.9039 31.3342 14.6377 31.0128 15.6446C30.9271 15.9231 30.0487 19.4633 29.0632 23.5123C28.0777 27.556 27.1726 31.1605 27.0547 31.514C26.637 32.7619 26.1335 33.6617 25.5443 34.208C25.0034 34.7007 24.4999 34.8721 23.8304 34.7703C22.786 34.6097 22.1111 33.9134 21.7309 32.6173C21.4577 31.6747 21.4684 31.905 21.4309 22.8482C21.3988 13.8772 21.4042 14.1182 21.1578 13.8022C21.0346 13.6415 21.0292 13.6415 20.8096 13.7379Z"
        fill="white"
    />
</svg>
